<svg width="25" height="24" viewBox="0 0 25 24" fill="none" xmlns="http://www.w3.org/2000/svg">
<path fill-rule="evenodd" clip-rule="evenodd" d="M5.1095 5.06106C5.1115 5.06106 5.0615 5.11306 4.9985 5.17506C4.7565 5.41006 4.2555 5.89906 4.25045 6.92206C4.2425 8.35306 5.1835 11.0101 9.7145 15.5401C14.2245 20.0481 16.8775 21.0001 18.3115 21.0001H18.3325C19.3555 20.9951 19.8435 20.4931 20.0795 20.2521C20.1515 20.1781 20.2095 20.1241 20.2505 20.0901C21.2465 19.0881 21.7565 18.3421 21.7515 17.8641C21.7445 17.3761 21.1375 16.7991 20.2985 16.0011C20.0315 15.7471 19.7415 15.4711 19.4355 15.1651C18.6425 14.3741 18.2495 14.5091 17.3855 14.8131C16.1905 15.2321 14.5505 15.8021 12.0025 13.2531C9.4505 10.7031 10.0215 9.06506 10.4395 7.87006C10.7415 7.00606 10.8795 6.61206 10.0855 5.81806C9.7745 5.50806 9.4955 5.21406 9.2385 4.94406C8.4455 4.11006 7.8735 3.50706 7.3885 3.50006H7.3805C6.9015 3.50006 6.1575 4.01206 5.1045 5.06506C5.1075 5.06206 5.1095 5.06106 5.1095 5.06106ZM18.3125 22.5001C15.8205 22.5001 12.5715 20.5161 8.6545 16.6011C4.7225 12.6701 2.7355 9.41106 2.75042 6.91406C2.7595 5.26406 3.6245 4.41906 3.9495 4.10206C3.9665 4.08106 4.0245 4.02406 4.0445 4.00406C5.4785 2.56906 6.4455 1.98906 7.4075 1.9999C8.5245 2.01506 9.3195 2.85106 10.3255 3.91006C10.5745 4.17206 10.8445 4.45706 11.1455 4.75706C12.6055 6.21706 12.1895 7.40806 11.8555 8.36406C11.4915 9.40706 11.1765 10.3071 13.0625 12.1931C14.9505 14.0791 15.8505 13.7641 16.8895 13.3971C17.8465 13.0631 19.0345 12.6451 20.4965 14.1051C20.7925 14.4011 21.0735 14.6681 21.3325 14.9151C22.3965 15.9261 23.2365 16.7251 23.2507 17.8451C23.2625 18.8001 22.6825 19.7731 21.2505 21.2061L20.6165 20.7761L21.1525 21.3001C20.8355 21.6251 19.9915 22.4911 18.3405 22.5001H18.3125Z" fill="black"/>
</svg>
