<svg width="890" height="944" viewBox="0 0 890 944" fill="none" xmlns="http://www.w3.org/2000/svg">
<path opacity="0.4" d="M78.5 0L81.7555 10.0193L92.2903 10.0193L83.7674 16.2115L87.0229 26.2307L78.5 20.0385L69.9771 26.2307L73.2326 16.2115L64.7097 10.0193L75.2445 10.0193L78.5 0Z" fill="#FF0004"/>
<path d="M86 170L87.5716 174.837H92.6574L88.5429 177.826L90.1145 182.663L86 179.674L81.8855 182.663L83.4571 177.826L79.3426 174.837H84.4284L86 170Z" fill="#FF0004"/>
<path d="M217.5 70L218.735 73.8004H222.731L219.498 76.1492L220.733 79.9496L217.5 77.6008L214.267 79.9496L215.502 76.1492L212.269 73.8004H216.265L217.5 70Z" fill="#FF0004"/>
<path opacity="0.2" d="M29 407L35.5109 427.039L56.5806 427.039L39.5349 439.423L46.0458 459.461L29 447.077L11.9542 459.461L18.4651 439.423L1.41936 427.039L22.4891 427.039L29 407Z" fill="#FF0004"/>
<path opacity="0.8" d="M277.5 790L281.204 801.401H293.192L283.494 808.448L287.198 819.849L277.5 812.802L267.802 819.849L271.506 808.448L261.808 801.401H273.796L277.5 790Z" fill="#FF0004"/>
<path d="M116.5 679L119.306 687.637H128.388L121.041 692.975L123.847 701.613L116.5 696.275L109.153 701.613L111.959 692.975L104.612 687.637H113.694L116.5 679Z" fill="#FF0004"/>
<path d="M559 843L560.347 847.146H564.706L561.18 849.708L562.527 853.854L559 851.292L555.473 853.854L556.82 849.708L553.294 847.146H557.653L559 843Z" fill="#FF0004"/>
<path d="M800.5 611L803.306 619.637H812.388L805.041 624.975L807.847 633.613L800.5 628.275L793.153 633.613L795.959 624.975L788.612 619.637H797.694L800.5 611Z" fill="#FF0004"/>
<path d="M878 358L880.694 366.292H889.413L882.359 371.416L885.053 379.708L878 374.584L870.947 379.708L873.641 371.416L866.587 366.292H875.306L878 358Z" fill="#FF0004"/>
<path d="M843.5 146L844.959 141.509H849.682L845.861 138.733L847.321 134.241L843.5 137.017L839.679 134.241L841.139 138.733L837.318 141.509H842.041L843.5 146Z" fill="#FF0004"/>
<path d="M551 23L552.796 28.5279H558.608L553.906 31.9443L555.702 37.4721L551 34.0557L546.298 37.4721L548.094 31.9443L543.392 28.5279H549.204L551 23Z" fill="#FF0004"/>
<path d="M742 29L744.245 35.9098H751.511L745.633 40.1803L747.878 47.0902L742 42.8197L736.122 47.0902L738.367 40.1803L732.489 35.9098H739.755L742 29Z" fill="#FF0004"/>
<path opacity="0.3" d="M806 814L808.47 821.601H816.462L809.996 826.298L812.466 833.899L806 829.202L799.534 833.899L802.004 826.298L795.538 821.601H803.53L806 814Z" fill="#FF0004"/>
<path opacity="0.5" d="M414.5 913L417.98 923.71H429.241L420.131 930.33L423.611 941.04L414.5 934.42L405.389 941.04L408.869 930.33L399.759 923.71H411.02L414.5 913Z" fill="#FF0004"/>
</svg>
