<svg width="25" height="24" viewBox="0 0 25 24" fill="none" xmlns="http://www.w3.org/2000/svg">
<path fill-rule="evenodd" clip-rule="evenodd" d="M12.9995 2.00024C17.5485 2.00024 21.2495 5.72924 21.2495 10.3132C21.2495 15.9482 14.7935 21.5002 12.9995 21.5002C11.2055 21.5002 4.74951 15.9482 4.74951 10.3132C4.74951 5.72924 8.45051 2.00024 12.9995 2.00024ZM12.9995 3.50024C9.27751 3.50024 6.24951 6.55724 6.24951 10.3132C6.24951 15.0922 11.8735 19.7482 12.9995 19.9962C14.1255 19.7472 19.7495 15.0912 19.7495 10.3132C19.7495 6.55724 16.7215 3.50024 12.9995 3.50024ZM13.0005 7.00024C14.7925 7.00024 16.2505 8.45824 16.2505 10.2512C16.2505 12.0432 14.7925 13.5002 13.0005 13.5002C11.2085 13.5002 9.75051 12.0432 9.75051 10.2512C9.75051 8.45824 11.2085 7.00024 13.0005 7.00024ZM13.0005 8.50024C12.0355 8.50024 11.2505 9.28524 11.2505 10.2512C11.2505 11.2162 12.0355 12.0002 13.0005 12.0002C13.9655 12.0002 14.7505 11.2162 14.7505 10.2512C14.7505 9.28524 13.9655 8.50024 13.0005 8.50024Z" fill="black"/>
</svg>
