<svg width="25" height="24" viewBox="0 0 25 24" fill="none" xmlns="http://www.w3.org/2000/svg">
<path fill-rule="evenodd" clip-rule="evenodd" d="M17.4089 2.00024C20.7389 2.00024 23.2499 4.71724 23.2499 8.32024V15.1882C23.2499 17.0322 22.5979 18.6982 21.4129 19.8802C20.3499 20.9392 18.9709 21.5002 17.4249 21.5002H7.57191C6.02891 21.5002 4.65091 20.9402 3.58691 19.8802C2.40191 18.6982 1.74991 17.0322 1.74991 15.1882V8.32024C1.74991 4.71724 4.26091 2.00024 7.59091 2.00024H17.4089ZM17.4089 3.50024H7.59091C5.07591 3.50024 3.24991 5.52724 3.24991 8.32024V15.1882C3.24991 16.6312 3.74591 17.9202 4.64591 18.8172C5.42191 19.5922 6.43491 20.0002 7.57491 20.0002H17.4089C17.4109 19.9982 17.4189 20.0002 17.4249 20.0002C18.5659 20.0002 19.5779 19.5922 20.3539 18.8172C21.2549 17.9202 21.7499 16.6312 21.7499 15.1882V8.32024C21.7499 5.52724 19.9239 3.50024 17.4089 3.50024ZM18.9849 8.12904C19.2459 8.45004 19.1969 8.92204 18.8759 9.18404L14.4319 12.796C13.8699 13.242 13.1979 13.465 12.5269 13.465C11.8579 13.465 11.1909 13.244 10.6329 12.802L6.14791 9.18604C5.82491 8.92604 5.77491 8.45304 6.03391 8.13104C6.29491 7.81004 6.76691 7.75904 7.08891 8.01804L11.5699 11.63C12.1329 12.076 12.9259 12.076 13.4929 11.626L17.9289 8.02004C18.2509 7.75704 18.7229 7.80704 18.9849 8.12904Z" fill="black"/>
</svg>
